<svg width="21" height="16" viewBox="0 0 21 16" fill="none" xmlns="http://www.w3.org/2000/svg">
<path fill-rule="evenodd" clip-rule="evenodd" d="M6.50006 11.2819V14.7181C6.50006 15.1638 6.45365 15.3255 6.36649 15.4884C6.27934 15.6514 6.15145 15.7793 5.98848 15.8664C5.82552 15.9536 5.66388 16 5.21812 16H3.50006C1.84321 16 0.500061 14.6569 0.500061 13C0.500061 11.6938 1.33487 10.5825 2.50006 10.1707V8C2.50006 3.58172 6.08178 0 10.5001 0C14.9183 0 18.5001 3.58172 18.5001 8V10.1707C19.6653 10.5825 20.5001 11.6938 20.5001 13C20.5001 14.6569 19.1569 16 17.5001 16H15.782C15.3362 16 15.1746 15.9536 15.0116 15.8664C14.8487 15.7793 14.7208 15.6514 14.6336 15.4884C14.5465 15.3255 14.5001 15.1638 14.5001 14.7181V11.2819C14.5001 10.8362 14.5465 10.6745 14.6336 10.5116C14.7208 10.3486 14.8487 10.2207 15.0116 10.1336C15.1746 10.0464 15.3362 10 15.782 10H16.5001V8C16.5001 4.68629 13.8138 2 10.5001 2C7.18635 2 4.50006 4.68629 4.50006 8V10H5.21812C5.66388 10 5.82552 10.0464 5.98848 10.1336C6.15145 10.2207 6.27934 10.3486 6.36649 10.5116C6.45365 10.6745 6.50006 10.8362 6.50006 11.2819Z" fill="white"/>
</svg>
