<svg width="17" height="14" viewBox="0 0 17 14" fill="none" xmlns="http://www.w3.org/2000/svg">
<path fill-rule="evenodd" clip-rule="evenodd" d="M0.499939 5C0.499939 4.44772 0.947654 4 1.49994 4H11.4999C12.0522 4 12.4999 4.44772 12.4999 5C12.4999 5.55229 12.0522 6 11.4999 6H1.49994C0.947654 6 0.499939 5.55229 0.499939 5ZM0.499939 1C0.499939 0.447715 0.947654 0 1.49994 0H15.4999C16.0522 0 16.4999 0.447715 16.4999 1C16.4999 1.55228 16.0522 2 15.4999 2H1.49994C0.947654 2 0.499939 1.55228 0.499939 1ZM0.499939 9C0.499939 8.44772 0.947654 8 1.49994 8H15.4999C16.0522 8 16.4999 8.44772 16.4999 9C16.4999 9.55229 16.0522 10 15.4999 10H1.49994C0.947654 10 0.499939 9.55229 0.499939 9ZM0.499939 13C0.499939 12.4477 0.947654 12 1.49994 12H8.49994C9.05222 12 9.49994 12.4477 9.49994 13C9.49994 13.5523 9.05222 14 8.49994 14H1.49994C0.947654 14 0.499939 13.5523 0.499939 13Z" fill="black"/>
</svg>
